# xmcd
#
# Track frame offsets:
#	150
#	9894
#	25574
#	32231
#	47709
#	60696
#	74242
#	86989
#	108234
#	124356
#	145834
#
# Disc length: 2232 seconds
#
# Revision: 0
# Processed by: cddbd v1.5.2PL0 Copyright (c) Steve Scherf et al.
# Submitted via: EZCDAudioConverter 4.0.5.1
#
DISCID=9908b60b
DTITLE=Kris Kristofferson - Live At The Big Sur Folk Festival
DYEAR=1970
DGENRE=Country
TTITLE0=If You Don't Like Hank Williams
TTITLE1=The Law Is For Protection Of The People
TTITLE2=Band Introductions
TTITLE3=The Pilgrim - Chapter 33
TTITLE4=Duvalier's Dream
TTITLE5=Help Me Make It Through The Night
TTITLE6=Shake Hands With The Devil
TTITLE7=To Beat The Devil
TTITLE8=Loving Her Was Easier (Than Anything I'll Ever Do Again)
TTITLE9=Sunday Mornin' Comin' Down
TTITLE10=Me And Bobby McGee
EXTD=
EXTT0=
EXTT1=
EXTT2=
EXTT3=
EXTT4=
EXTT5=
EXTT6=
EXTT7=
EXTT8=
EXTT9=
EXTT10=
PLAYORDER=
